<svg width="96" height="96" viewBox="0 0 96 96" fill="none" xmlns="http://www.w3.org/2000/svg">
<path d="M84.9144 78.6165C89.8418 72.693 93.2688 65.6707 94.9055 58.1439C96.5423 50.6171 96.3407 42.8071 94.3177 35.3745C92.2947 27.942 88.5099 21.1057 83.2834 15.4438C78.057 9.78199 71.5426 5.46117 64.2914 2.84693C57.0402 0.232677 49.2655 -0.598098 41.625 0.424879C33.9845 1.44786 26.703 4.29449 20.3965 8.72397C14.0899 13.1535 8.94381 19.0355 5.39354 25.8724C1.84327 32.7094 -0.0067337 40.3002 1.84165e-05 48.0026C0.00260943 59.1998 3.95168 70.0384 11.1543 78.6165L11.0857 78.6748C11.3258 78.9628 11.6003 79.2096 11.8473 79.4941C12.1561 79.8473 12.4889 80.1798 12.808 80.5226C13.7687 81.5648 14.7568 82.5658 15.793 83.5051C16.1087 83.7931 16.4346 84.0605 16.7537 84.3348C17.8516 85.281 18.9804 86.1791 20.1504 87.0156C20.3014 87.1185 20.4386 87.2522 20.5896 87.3585V87.3173C28.6254 92.9676 38.2117 96 48.0378 96C57.8638 96 67.4501 92.9676 75.4859 87.3173V87.3585C75.6369 87.2522 75.7707 87.1185 75.9251 87.0156C77.0917 86.1757 78.2239 85.281 79.3218 84.3348C79.6409 84.0605 79.9669 83.7897 80.2825 83.5051C81.3187 82.5624 82.3068 81.5648 83.2675 80.5226C83.5866 80.1798 83.916 79.8473 84.2282 79.4941C84.4718 79.2096 84.7497 78.9628 84.9899 78.6714L84.9144 78.6165ZM48.0343 20.577C51.088 20.577 54.0731 21.4818 56.6121 23.1769C59.1511 24.872 61.1301 27.2814 62.2987 30.1003C63.4672 32.9192 63.773 36.021 63.1773 39.0136C62.5815 42.0061 61.111 44.7549 58.9518 46.9124C56.7925 49.0699 54.0414 50.5392 51.0464 51.1344C48.0515 51.7297 44.9471 51.4242 42.1258 50.2565C39.3046 49.0889 36.8933 47.1116 35.1968 44.5747C33.5002 42.0377 32.5947 39.0551 32.5947 36.0039C32.5947 31.9124 34.2214 27.9885 37.1169 25.0954C40.0124 22.2023 43.9395 20.577 48.0343 20.577ZM20.6102 78.6165C20.6697 74.1152 22.5005 69.8182 25.7065 66.6553C28.9124 63.4924 33.2358 61.7178 37.7413 61.7155H58.3274C62.8328 61.7178 67.1562 63.4924 70.3622 66.6553C73.5682 69.8182 75.399 74.1152 75.4585 78.6165C67.9337 85.3918 58.1636 89.1414 48.0343 89.1414C37.9051 89.1414 28.1349 85.3918 20.6102 78.6165Z" fill="#7364FF"/>
</svg>
